USFL
nRows=140
nColumns=2
inDegrees=yes
endheader
time	soleus_r	
2.99981	 27.208683	
3.0623	 27.216703	
3.1248	 27.239482	
3.1873	 27.227575	
3.24979	 27.234269	
3.31229	 27.236817	
3.37478	 27.266449	
3.43728	 27.185329	
3.49978	 27.184042	
3.56227	 27.186264	
3.62477	 27.126182	
3.68726	 27.108794	
3.74976	 27.072711	
3.81226	 27.725911	
3.87475	 27.939105	
3.93725	 22.792318	
3.99974	 22.599787	
4.06224	 22.714728	
4.12474	 22.693728	
4.18723	 22.486973	
4.24973	 22.614311	
4.31222	 22.637138	
4.37472	 22.526307	
4.43722	 22.631792	
4.49971	 22.516543	
4.56221	 22.574258	
4.6247	 22.503379	
4.6872	 22.513415	
4.7497	 22.527955	
4.81219	 22.495329	
4.87469	 22.430242	
4.93718	 22.382812	
4.99968	 22.456919	
5.06218	 22.479953	
5.12467	 22.440942	
5.18717	 22.502449	
5.24966	 22.440142	
5.31216	 22.329797	
5.37466	 22.338313	
5.43715	 22.372481	
5.49965	 22.303198	
5.56214	 22.412302	
5.62464	 22.571401	
5.68714	 22.524635	
5.74963	 22.606082	
5.81213	 22.509797	
5.87462	 22.266345	
5.93712	 22.300354	
5.99962	 22.195451	
6.06211	 22.274681	
6.12461	 22.166712	
6.1871	 22.140553	
6.2496	 22.197319	
6.3121	 22.247665	
6.37459	 22.091746	
6.43709	 21.968921	
6.49958	 21.907953	
6.56208	 22.000639	
6.62458	 21.990738	
6.68707	 22.387245	
6.74957	 22.328678	
6.81206	 22.492726	
6.87456	 22.587841	
6.93706	 22.607090	
6.99955	 22.540174	
7.06205	 22.436397	
7.12454	 22.428823	
7.18704	 22.472631	
7.24954	 22.298112	
7.31203	 22.259152	
7.37453	 22.384139	
7.43702	 22.559164	
7.49952	 22.451453	
7.56202	 22.424041	
7.62451	 22.245255	
7.68701	 22.433454	
7.7495	 22.463039	
7.812	 22.324050	
7.8745	 22.324666	
7.93699	 22.415041	
7.99949	 22.430088	
8.06198	 22.464971	
8.12448	 22.239697	
8.18698	 22.239064	
8.24947	 22.112141	
8.31197	 22.103776	
8.37446	 21.759688	
8.43696	 21.702421	
8.49946	 21.247547	
8.56195	 21.343875	
8.62445	 21.286882	
8.68694	 21.265584	
8.74944	 21.132644	
8.81194	 21.060834	
8.87443	 21.066400	
8.93693	 20.976692	
8.99942	 20.985673	
9.06192	 21.111897	
9.12442	 21.525455	
9.18691	 21.599747	
9.24941	 21.843586	
9.3119	 22.132734	
9.3744	 22.186843	
9.4369	 22.021646	
9.49939	 21.845144	
9.56189	 21.818725	
9.62438	 21.536695	
9.68688	 21.391783	
9.74938	 21.327953	
9.81187	 21.290530	
9.87437	 21.649254	
9.93686	 21.588349	
9.99936	 21.639150	
10.0619	 21.833679	
10.1244	 21.884067	
10.1868	 22.181664	
10.2493	 22.229690	
10.3118	 22.246082	
10.3743	 22.025835	
10.4368	 22.164678	
10.4993	 22.159027	
10.5618	 22.226798	
10.6243	 22.086664	
10.6868	 22.196154	
10.7493	 20.758736	
10.8118	 22.610079	
10.8743	 22.601030	
10.9368	 21.550430	
10.9993	 21.553008	
11.0618	 23.626166	
11.1243	 23.584931	
11.1868	 23.766046	
11.2493	 23.682774	
11.3118	 23.969564	
11.3743	 24.300847	
11.4368	 24.340744	
11.4993	 23.314588	
11.5618	 22.992599	
11.6243	 22.973793	
11.6868	 22.980442	
